<svg width="21" height="21" viewBox="0 0 21 21" fill="none" xmlns="http://www.w3.org/2000/svg">
<path d="M5.12671 0.032814L0.992338 0.986427C0.407866 1.12038 -0.00106049 1.63406 -0.00106049 2.23576C-0.000240326 12.5836 8.41617 21 18.7644 21C19.3657 21 19.88 20.5911 20.0133 20.0066L20.9669 15.8722C21.1065 15.2701 20.7939 14.6549 20.2237 14.4047L15.7735 12.4966C15.2494 12.2736 14.6386 12.424 14.2785 12.865L12.5054 15.0732C9.66632 13.6795 7.35796 11.3712 5.96343 8.53125L8.17007 6.72328C8.61222 6.36694 8.76521 5.75162 8.53819 5.22744L6.63055 0.777248C6.34898 0.241995 5.72554 -0.10664 5.12671 0.032814Z" fill="#F97316"/>
</svg>
