<svg width="19" height="19" viewBox="0 0 19 19" fill="none" xmlns="http://www.w3.org/2000/svg">
<path d="M1.78125 0.624023C0.797852 0.624023 0 1.59984 0 2.80361C0 3.48928 0.263477 4.13407 0.7125 4.54729L8.7875 11.9579C9.21055 12.3439 9.78945 12.3439 10.2125 11.9579L18.2875 4.54729C18.736 4.13407 19 3.48928 19 2.80361C19 1.59984 18.2025 0.624023 17.2188 0.624023H1.78125ZM10.925 13.1203C10.0789 13.8968 8.92109 13.8968 8.075 13.1203L0 5.70974V15.1546C0 16.7575 1.06504 18.0608 2.375 18.0608H16.625C17.9368 18.0608 19 16.7575 19 15.1546V5.70974L10.925 13.1203Z" fill="#F97316"/>
</svg>
